<svg version="1.2" baseProfile="tiny-ps" xmlns="http://www.w3.org/2000/svg" viewBox="0 0 17 17" width="75" height="75">
	<title>Icon-Monster_Part_Teal-svg</title>
	<style>
		tspan { white-space:pre }
		.shp0 { fill: #000000 } 
		.shp1 { fill: #52ebc7;stroke: #000000;stroke-linejoin:round;stroke-width: 0.529 } 
		.shp2 { fill: none;stroke: #000000;stroke-linecap:round;stroke-linejoin:round;stroke-width: 0.529 } 
	</style>
	<g id="layer1">
		<path id="path3932" fill-rule="evenodd" class="shp0" d="M10.32 3.57L10.32 7.01L14.55 13.89L12.96 15.74L4.5 15.74L3.44 13.89L5.03 1.46L9 2.51L10.32 3.57Z" />
		<path id="path3881" fill-rule="evenodd" class="shp1" d="M2.38 10.19L2.38 5.69L3.44 4.63L14.02 4.63L15.08 5.69L15.08 13.1L14.29 13.89L3.7 13.89L2.38 10.19Z" />
		<path id="path3677-5" fill-rule="evenodd" class="shp1" d="M3.44 13.89L4.23 13.89L4.23 15.74L2.65 15.74L2.65 13.89L3.44 13.89Z" />
		<path id="path3677-3-7" fill-rule="evenodd" class="shp1" d="M5.56 13.89L6.35 13.89L6.35 15.74L4.76 15.74L4.76 13.89L5.56 13.89Z" />
		<path id="path3677-3-3-2" fill-rule="evenodd" class="shp1" d="M7.67 13.89L8.47 13.89L8.47 15.74L6.88 15.74L6.88 13.89L7.67 13.89Z" />
		<path id="path3677-3-3-4-3" fill-rule="evenodd" class="shp1" d="M9.79 13.89L10.58 13.89L10.58 15.74L9 15.74L9 13.89L9.79 13.89Z" />
		<path id="path3677-3-3-4-9-8" fill-rule="evenodd" class="shp1" d="M14.02 13.89L14.82 13.89L14.82 15.74L13.23 15.74L13.23 13.89L14.02 13.89Z" />
		<path id="path3677-3-3-4-2-1" fill-rule="evenodd" class="shp1" d="M11.91 13.89L12.7 13.89L12.7 15.74L11.11 15.74L11.11 13.89L11.91 13.89Z" />
		<path id="path3858" fill-rule="evenodd" class="shp1" d="M2.91 13.89L1.85 12.83L1.85 10.19L3.17 8.86L6.09 8.86L7.41 10.19L8.2 10.19L8.73 10.72L8.73 13.89L2.91 13.89Z" />
		<path id="path3860" fill-rule="evenodd" class="shp0" d="M3.17 10.72L3.17 10.19L3.44 9.92L4.76 9.92L5.03 10.19L5.03 10.72L3.17 10.72Z" />
		<path id="path3862" class="shp2" d="M4.76 12.57L11.11 12.57L12.96 10.98L12.96 7.54L12.96 10.98L11.11 12.3L5.03 12.3L4.76 12.57Z" />
		<path id="path3864" class="shp2" d="M5.29 6.75L5.29 8.86" />
		<path id="path3864-7" class="shp2" d="M3.97 6.75L3.97 8.86" />
		<path id="path3747-5" fill-rule="evenodd" class="shp1" d="M3.97 4.63L3.97 1.19L7.14 1.19L7.14 2.25L5.29 2.25L6.61 2.25L6.61 3.57L5.29 3.57L5.29 4.63L3.97 4.63Z" />
		<path id="path3747-3-0" fill-rule="evenodd" class="shp1" d="M7.41 4.63L7.41 1.19L10.58 1.19L10.58 2.25L8.73 2.25L10.05 2.25L10.05 3.57L8.73 3.57L8.73 4.63L7.41 4.63Z" />
	</g>
</svg>