<svg version="1.2" baseProfile="tiny-ps" xmlns="http://www.w3.org/2000/svg" viewBox="0 0 17 17" width="75" height="75">
	<title>Icon-Claw_Teal-svg</title>
	<style>
		tspan { white-space:pre }
		.shp0 { fill: #52ebc7;stroke: #000000;stroke-linejoin:round;stroke-width: 0.529 } 
	</style>
	<g id="layer1">
		<path id="path3415-4" fill-rule="evenodd" class="shp0" d="M5.82 5.03L7.94 5.03L7.94 6.61C7.94 7.67 9.26 9.52 11.11 9.52C12.96 9.52 14.02 8.73 14.02 7.14L14.02 6.88L14.55 6.35L15.08 6.35C15.08 6.35 15.35 7.14 15.35 8.2C15.35 9.79 14.29 12.17 10.85 12.17C7.41 12.17 4.23 8.73 4.23 5.03L5.82 5.03Z" />
		<path id="path3415" fill-rule="evenodd" class="shp0" d="M11.11 5.03L9 5.03L9 6.61C9 7.67 7.67 9.52 5.82 9.52C3.97 9.52 2.91 8.73 2.91 7.14L2.91 6.88L2.38 6.35L1.85 6.35C1.85 6.35 1.59 7.14 1.59 8.2C1.59 9.79 2.65 12.17 6.09 12.17C9.52 12.17 12.7 8.73 12.7 5.03L11.11 5.03Z" />
		<path id="path3432" fill-rule="evenodd" class="shp0" d="M1.85 15.61L1.59 15.61L1.59 14.82L2.91 13.49L3.44 13.49L4.76 14.82L4.76 15.61L1.85 15.61Z" />
		<path id="path3432-1" fill-rule="evenodd" class="shp0" d="M7.14 15.61L6.88 15.61L6.88 14.82L8.2 13.49L8.73 13.49L10.05 14.82L10.05 15.61L7.14 15.61Z" />
		<path id="path3432-1-6" fill-rule="evenodd" class="shp0" d="M12.44 15.61L12.17 15.61L12.17 14.82L13.49 13.49L14.02 13.49L15.35 14.82L15.35 15.61L12.44 15.61Z" />
		<path id="path3432-5" fill-rule="evenodd" class="shp0" d="M1.85 1.32L1.59 1.32L1.59 2.12L2.91 3.44L3.44 3.44L4.76 2.12L4.76 1.32L1.85 1.32Z" />
		<path id="path3432-1-3" fill-rule="evenodd" class="shp0" d="M7.14 1.32L6.88 1.32L6.88 2.12L8.2 3.44L8.73 3.44L10.05 2.12L10.05 1.32L7.14 1.32Z" />
		<path id="path3432-1-6-0" fill-rule="evenodd" class="shp0" d="M12.44 1.32L12.17 1.32L12.17 2.12L13.49 3.44L14.02 3.44L15.35 2.12L15.35 1.32L12.44 1.32Z" />
	</g>
</svg>