<svg version="1.2" baseProfile="tiny-ps" xmlns="http://www.w3.org/2000/svg" viewBox="0 0 17 17" width="75" height="75">
	<title>MHRise_Item_Icon-Plate_Brown-svg</title>
	<style>
		tspan { white-space:pre }
		.shp0 { fill: #000000;stroke: #000000;stroke-linejoin:round;stroke-width: 1.058 } 
		.shp1 { fill: #52ebc7 } 
		.shp2 { fill: #000000 } 
		.shp3 { fill: #3aa088;stroke: #000000;stroke-linejoin:round;stroke-width: 0.529 } 
	</style>
	<g id="layer1">
		<path id="path833" fill-rule="evenodd" class="shp0" d="M8.47 1.45L8.24 1.86C8.24 1.86 7.91 2.45 7.49 3.03C7.28 3.32 7.05 3.6 6.83 3.81C6.62 4.01 6.42 4.11 6.35 4.11C6.01 4.11 5.42 3.98 4.93 3.85C4.44 3.72 4.05 3.59 4.05 3.59L3.58 3.43L3.71 3.92C3.71 3.92 3.84 4.36 3.9 4.9C3.97 5.44 3.94 6.06 3.75 6.34C3.53 6.67 3.11 6.92 2.74 7.07C2.37 7.23 2.06 7.29 2.06 7.29L1.58 7.39L1.93 7.74C1.93 7.74 2.25 8.06 2.58 8.45C2.74 8.64 2.9 8.85 3.01 9.03C3.12 9.21 3.18 9.38 3.18 9.4C3.18 9.42 3.13 9.56 3.02 9.72C2.91 9.87 2.75 10.05 2.59 10.21C2.27 10.52 1.95 10.78 1.95 10.78L1.51 11.14L2.06 11.25C2.06 11.25 3.27 11.51 3.73 12.43C4.03 13.03 4.7 13.75 5.38 14.36C5.72 14.66 6.05 14.93 6.35 15.13C6.5 15.23 6.64 15.32 6.76 15.38C6.89 15.44 7 15.49 7.14 15.49L8.47 15.49L9.79 15.49C9.93 15.49 10.04 15.44 10.17 15.38C10.3 15.32 10.43 15.23 10.58 15.13C10.88 14.93 11.22 14.66 11.55 14.36C12.23 13.75 12.9 13.03 13.2 12.43C13.66 11.51 14.87 11.25 14.87 11.25L15.43 11.14L14.98 10.78C14.98 10.78 14.66 10.52 14.34 10.21C14.18 10.05 14.03 9.87 13.92 9.72C13.81 9.56 13.76 9.42 13.76 9.4C13.76 9.38 13.81 9.21 13.92 9.03C14.04 8.85 14.2 8.64 14.36 8.45C14.68 8.06 15 7.74 15 7.74L15.35 7.39L14.87 7.29C14.87 7.29 14.56 7.23 14.19 7.07C13.82 6.92 13.4 6.67 13.18 6.34C13 6.06 12.97 5.44 13.03 4.9C13.09 4.36 13.22 3.92 13.22 3.92L13.36 3.43L12.88 3.59C12.88 3.59 12.49 3.72 12 3.85C11.52 3.98 10.92 4.11 10.58 4.11C10.52 4.11 10.32 4.01 10.1 3.81C9.88 3.6 9.65 3.32 9.44 3.03C9.02 2.45 8.7 1.86 8.7 1.86L8.47 1.45Z" />
		<path id="path4484" fill-rule="evenodd" class="shp1" d="M8.7 1.86C8.7 1.86 9.02 2.45 9.44 3.03C9.65 3.32 9.88 3.6 10.1 3.81C10.32 4.01 10.52 4.11 10.58 4.11C10.92 4.11 11.52 3.98 12 3.85C12.49 3.72 12.88 3.59 12.88 3.59L13.36 3.43L13.22 3.92C13.22 3.92 13.09 4.36 13.03 4.9C12.97 5.44 13 6.06 13.18 6.34C13.4 6.67 13.82 6.92 14.19 7.07C14.56 7.23 14.87 7.29 14.87 7.29L15.35 7.39L15 7.74C15 7.74 14.68 8.06 14.36 8.45C14.2 8.64 14.04 8.85 13.92 9.03C13.81 9.21 13.76 9.38 13.76 9.4C13.76 9.42 13.81 9.56 13.92 9.72C14.03 9.87 14.18 10.05 14.34 10.21C14.66 10.52 14.98 10.78 14.98 10.78L15.43 11.14L14.87 11.25C14.87 11.25 13.66 11.51 13.2 12.43C12.9 13.03 12.23 13.75 11.55 14.36C11.22 14.66 10.88 14.93 10.58 15.13C10.43 15.23 10.3 15.32 10.17 15.38C10.04 15.44 9.93 15.49 9.79 15.49L7.14 15.49C7 15.49 6.89 15.44 6.76 15.38C6.64 15.32 6.5 15.23 6.35 15.13C6.05 14.93 5.72 14.66 5.38 14.36C4.7 13.75 4.03 13.03 3.73 12.43C3.27 11.51 2.06 11.25 2.06 11.25L1.51 11.14L1.95 10.78C1.95 10.78 2.27 10.52 2.59 10.21C2.75 10.05 2.91 9.87 3.02 9.72C3.13 9.56 3.18 9.42 3.18 9.4C3.18 9.38 3.12 9.21 3.01 9.03C2.9 8.85 2.74 8.64 2.58 8.45C2.25 8.06 1.93 7.74 1.93 7.74L1.58 7.39L2.06 7.29C2.06 7.29 2.37 7.23 2.74 7.07C3.11 6.92 3.53 6.67 3.75 6.34C3.94 6.06 3.97 5.44 3.9 4.9C3.84 4.36 3.71 3.92 3.71 3.92L3.58 3.43L4.05 3.59C4.05 3.59 4.44 3.72 4.93 3.85C5.42 3.98 6.01 4.11 6.35 4.11C6.42 4.11 6.62 4.01 6.83 3.81C7.05 3.6 7.28 3.32 7.49 3.03C7.91 2.45 8.24 1.86 8.24 1.86L8.47 1.45L8.7 1.86ZM7.92 3.34C7.7 3.64 7.45 3.95 7.2 4.19C6.94 4.44 6.68 4.64 6.35 4.64C5.89 4.64 5.3 4.5 4.79 4.36C4.53 4.29 4.48 4.27 4.31 4.22C4.36 4.42 4.39 4.5 4.43 4.84C4.5 5.42 4.53 6.13 4.19 6.64C3.88 7.11 3.37 7.39 2.95 7.56C2.75 7.64 2.73 7.63 2.59 7.67C2.72 7.81 2.78 7.87 2.98 8.11C3.15 8.31 3.32 8.53 3.46 8.75C3.59 8.96 3.7 9.16 3.7 9.4C3.7 9.64 3.59 9.83 3.45 10.03C3.31 10.22 3.14 10.41 2.97 10.58C2.79 10.75 2.75 10.78 2.62 10.89C3.08 11.04 3.78 11.33 4.21 12.19C4.38 12.54 4.79 13.04 5.27 13.52C4.97 12.87 4.63 11.8 4.63 10.19C4.63 9.57 4.73 8.95 4.92 8.37C5.12 7.79 5.4 7.27 5.75 6.83C6.11 6.38 6.53 6.03 7 5.79C7.46 5.55 7.96 5.43 8.47 5.43C8.97 5.43 9.47 5.55 9.93 5.79C10.4 6.03 10.82 6.38 11.18 6.83C11.54 7.27 11.82 7.79 12.01 8.37C12.2 8.95 12.3 9.57 12.3 10.19C12.3 11.8 11.97 12.87 11.67 13.52C12.14 13.04 12.55 12.54 12.73 12.19C13.16 11.33 13.86 11.04 14.31 10.89C14.18 10.78 14.14 10.75 13.97 10.58C13.8 10.41 13.62 10.22 13.48 10.03C13.35 9.83 13.23 9.64 13.23 9.4C13.23 9.16 13.34 8.96 13.48 8.75C13.61 8.53 13.78 8.31 13.95 8.11C14.15 7.87 14.21 7.81 14.34 7.67C14.21 7.63 14.18 7.64 13.99 7.56C13.57 7.39 13.06 7.11 12.74 6.64C12.4 6.13 12.43 5.42 12.5 4.84C12.54 4.5 12.58 4.42 12.62 4.22C12.46 4.27 12.41 4.29 12.14 4.36C11.64 4.5 11.04 4.64 10.58 4.64C10.25 4.64 9.99 4.44 9.74 4.19C9.48 3.95 9.23 3.64 9.01 3.34C8.7 2.91 8.59 2.7 8.47 2.48C8.34 2.7 8.23 2.91 7.92 3.34Z" />
		<path id="path4478" class="shp2" d="M8.47 14.69C6.78 14.69 5.42 12.86 5.42 10.59C5.42 8.32 6.78 6.49 8.47 6.49C10.15 6.49 11.51 8.32 11.51 10.59C11.51 12.86 10.15 14.69 8.47 14.69Z" />
		<path id="path4461-5" class="shp1" d="M8.47 14.16C7.22 14.16 6.22 12.98 6.22 11.52C6.22 10.05 7.22 8.87 8.47 8.87C9.71 8.87 10.72 10.05 10.72 11.52C10.72 12.98 9.71 14.16 8.47 14.16Z" />
		<path id="path4461" class="shp3" d="M8.47 13.37C7.66 13.37 7.01 12.6 7.01 11.65C7.01 10.7 7.66 9.93 8.47 9.93C9.27 9.93 9.92 10.7 9.92 11.65C9.92 12.6 9.27 13.37 8.47 13.37Z" />
	</g>
</svg>