<svg version="1.2" baseProfile="tiny-ps" xmlns="http://www.w3.org/2000/svg" viewBox="0 0 17 17" width="75" height="75">
	<title>Icon-Shell_Teal-svg</title>
	<style>
		tspan { white-space:pre }
		.shp0 { fill: #adadad;stroke: #000000;stroke-linejoin:round;stroke-width: 0.529 } 
		.shp1 { fill: #adadad } 
		.shp2 { fill: #434343 } 
		.shp3 { fill: none;stroke: #000000;stroke-linejoin:round;stroke-width: 0.529 } 
		.shp4 { fill: #4a4949 } 
	</style>
	<g id="layer1">
		<path id="path3378-3" fill-rule="evenodd" class="shp0" d="M11.91 4.23L9 7.14L8.73 7.41L12.17 10.85L15.61 7.41L12.17 3.97L11.91 4.23Z" />
		<path id="path3378" fill-rule="evenodd" class="shp0" d="M4.5 4.23L1.59 7.14L1.32 7.41L4.76 10.85L8.2 7.41L4.76 3.97L4.5 4.23Z" />
		<path id="path3298-4-1-0" fill-rule="evenodd" class="shp0" d="M8.73 14.55L8.47 14.82L4.5 10.85L8.47 6.88L12.44 10.85L9 14.29L8.73 14.55Z" />
		<path id="path3304-3-2" fill-rule="evenodd" class="shp1" d="M10.58 5.29L14.55 9.26L10.58 13.23L6.61 9.26L10.58 5.29Z" />
		<path id="path3302-7-1" fill-rule="evenodd" class="shp2" d="M7.95 8.19L7.39 8.75L10.58 11.94L13.77 8.75L13.21 8.19L10.58 10.82L7.95 8.19Z" />
		<path id="path3298-4-1" class="shp3" d="M10.85 12.96L10.58 13.23L6.61 9.26L10.58 5.29L14.55 9.26L11.11 12.7L10.85 12.96Z" />
		<path id="path3304-3" fill-rule="evenodd" class="shp1" d="M6.35 5.82L10.32 9.79L6.35 13.76L2.38 9.79L6.35 5.82Z" />
		<path id="path3302-7" fill-rule="evenodd" class="shp4" d="M3.72 8.71L3.16 9.28L6.35 12.47L9.54 9.28L8.98 8.71L6.35 11.34L3.72 8.71Z" />
		<path id="path3298-4" class="shp3" d="M6.61 13.49L6.35 13.76L2.38 9.79L6.35 5.82L10.32 9.79L6.88 13.23L6.61 13.49Z" />
		<path id="path3304" fill-rule="evenodd" class="shp1" d="M8.2 2.12L12.17 6.09L8.2 10.05L4.23 6.09L8.2 2.12Z" />
		<path id="path3298" class="shp3" d="M8.47 9.79L8.2 10.05L4.23 6.09L8.2 2.12L12.17 6.09L8.73 9.53L8.47 9.79Z" />
	</g>
</svg>