<?xml version="1.0" encoding="UTF-8" standalone="no"?>
<!-- Created with Inkscape (http://www.inkscape.org/) -->

<svg
   xmlns:dc="http://purl.org/dc/elements/1.1/"
   xmlns:cc="http://creativecommons.org/ns#"
   xmlns:rdf="http://www.w3.org/1999/02/22-rdf-syntax-ns#"
   xmlns:svg="http://www.w3.org/2000/svg"
   xmlns="http://www.w3.org/2000/svg"
   xmlns:sodipodi="http://sodipodi.sourceforge.net/DTD/sodipodi-0.dtd"
   xmlns:inkscape="http://www.inkscape.org/namespaces/inkscape"
   width="64"
   height="64"
   viewBox="0 0 16.933333 16.933334"
   version="1.1"
   id="svg8"
   inkscape:version="0.92.4 (5da689c313, 2019-01-14)"
   sodipodi:docname="MHRise Item Icon-Igniter Yellow.svg">
  <defs
     id="defs2" />
  <sodipodi:namedview
     id="base"
     pagecolor="#ffffff"
     bordercolor="#666666"
     borderopacity="1.0"
     inkscape:pageopacity="0.0"
     inkscape:pageshadow="2"
     inkscape:zoom="5.6568542"
     inkscape:cx="18.091112"
     inkscape:cy="38.587428"
     inkscape:document-units="px"
     inkscape:current-layer="layer1"
     showgrid="false"
     units="px"
     showguides="true"
     inkscape:guide-bbox="true"
     inkscape:snap-global="true"
     inkscape:window-width="1304"
     inkscape:window-height="745"
     inkscape:window-x="-8"
     inkscape:window-y="-8"
     inkscape:window-maximized="1" />
  <metadata
     id="metadata5">
    <rdf:RDF>
      <cc:Work
         rdf:about="">
        <dc:format>image/svg+xml</dc:format>
        <dc:type
           rdf:resource="http://purl.org/dc/dcmitype/StillImage" />
        <dc:title />
      </cc:Work>
    </rdf:RDF>
  </metadata>
  <g
     inkscape:label="Layer 1"
     inkscape:groupmode="layer"
     id="layer1"
     transform="translate(0,-280.06666)"
     style="display:inline">
    <path
       style="fill:#000000;stroke:none;stroke-width:0.26458335px;stroke-linecap:butt;stroke-linejoin:miter;stroke-opacity:1"
       d="m 9.8070075,283.90305 -0.025414,4.90497 1.7027625,2.28729 -0.914917,1.55027 -5.3878433,-0.45746 0.5082871,-1.95689 1.4232039,-1.75359 -0.076243,-4.62542 z"
       id="path989"
       inkscape:connector-curvature="0" />
    <path
       style="fill:#d5d5d5;fill-opacity:1;stroke:none;stroke-width:0.26458335px;stroke-linecap:butt;stroke-linejoin:miter;stroke-opacity:1"
       d="m 5.7152967,291.09531 h 5.7690583 l 0.152485,1.32155 -0.813258,2.05856 -2.356915,1.21988 -2.5480557,-1.21988 -0.7370161,-2.2873 z"
       id="path987"
       inkscape:connector-curvature="0" />
    <path
       style="fill:#ffffff;fill-opacity:1;stroke:#000000;stroke-width:0.5291667;stroke-linecap:round;stroke-linejoin:round;stroke-miterlimit:4;stroke-dasharray:none;stroke-opacity:1"
       d="m 5.4964538,283.22624 v 1.73304 h 1.0142193 v 2.7439 c 0,1.43143 -1.9464474,1.92185 -1.9464474,4.48143 0,2.21468 1.4172896,4.19334 3.9024413,4.19334 2.48515,0 3.902441,-1.97866 3.902441,-4.19334 0,-2.55958 -1.946447,-3.05 -1.946447,-4.48143 v -2.7439 h 1.014219 v -1.73304 H 8.9726536 v 5.44679 c 0,0.84279 2.1076214,1.71404 2.1076214,3.49305 0,1.779 -1.3247378,2.70514 -2.613608,2.70514 -1.288871,0 -2.6136081,-0.92614 -2.6136081,-2.70514 0,-1.77901 2.1076217,-2.65026 2.1076217,-3.49305 v -5.44679 z"
       id="path828"
       inkscape:connector-curvature="0" />
    <path
       style="display:inline;opacity:1;vector-effect:none;fill:#ffffff;fill-opacity:1;fill-rule:evenodd;stroke:#000000;stroke-width:0.5291667;stroke-linecap:butt;stroke-linejoin:round;stroke-miterlimit:4;stroke-dasharray:none;stroke-dashoffset:0;stroke-opacity:1"
       d="M 8.976039,285.22818 H 7.9632332 v -0.84934 l -1.1816073,-1.18908 -0.00636,-1.68934 0.8175,-0.81172 1.6778621,0.005 0.827956,0.81424 0.009,1.19803 -0.7939339,0.65338 h -0.844004 l -0.5064029,-0.50933 v -0.84934 h 0.8440047 v 0.5096 H 8.976039 v -0.16985 -0.33975 L 8.8072379,281.83081 H 7.9632332 l -0.1406415,0.13642 0.012707,0.89083 1.1407402,1.18104 z"
       id="path5861"
       inkscape:connector-curvature="0"
       sodipodi:nodetypes="cccccccccccccccccccccccc" />
    <path
       style="fill:#ffffff;fill-opacity:1;stroke:#000000;stroke-width:0.52916664;stroke-linecap:round;stroke-linejoin:round;stroke-miterlimit:4;stroke-dasharray:none;stroke-opacity:1"
       d="m 1.4339612,282.84773 v 1.75214 1.75214 l 1.7521395,-1.75214 z"
       id="path832"
       inkscape:connector-curvature="0" />
    <path
       inkscape:connector-curvature="0"
       style="fill:#ffffff;fill-opacity:1;stroke:#000000;stroke-width:0.5291667;stroke-linecap:round;stroke-linejoin:round;stroke-miterlimit:4;stroke-dasharray:none;stroke-opacity:1"
       d="m 1.4339612,286.92708 v 1.75214 1.75214 l 1.7521395,-1.75214 z"
       id="path832-5" />
    <path
       inkscape:connector-curvature="0"
       style="fill:#ffffff;fill-opacity:1;stroke:#000000;stroke-width:0.5291667;stroke-linecap:round;stroke-linejoin:round;stroke-miterlimit:4;stroke-dasharray:none;stroke-opacity:1"
       d="m 1.4339612,291.02439 v 1.75214 1.75214 l 1.7521394,-1.75214 z"
       id="path832-5-9" />
    <path
       inkscape:connector-curvature="0"
       style="fill:#ffffff;fill-opacity:1;stroke:#000000;stroke-width:0.5291667;stroke-linecap:round;stroke-linejoin:round;stroke-miterlimit:4;stroke-dasharray:none;stroke-opacity:1"
       d="m 15.499372,282.84772 v 1.75215 1.75213 l -1.75214,-1.75213 z"
       id="path832-4" />
    <path
       inkscape:connector-curvature="0"
       style="fill:#ffffff;fill-opacity:1;stroke:#000000;stroke-width:0.5291667;stroke-linecap:round;stroke-linejoin:round;stroke-miterlimit:4;stroke-dasharray:none;stroke-opacity:1"
       d="m 15.499372,286.92708 v 1.75214 1.75214 l -1.75214,-1.75214 z"
       id="path832-5-2" />
    <path
       inkscape:connector-curvature="0"
       style="fill:#ffffff;fill-opacity:1;stroke:#000000;stroke-width:0.5291667;stroke-linecap:round;stroke-linejoin:round;stroke-miterlimit:4;stroke-dasharray:none;stroke-opacity:1"
       d="m 15.499372,291.02439 v 1.75214 1.75214 l -1.75214,-1.75214 z"
       id="path832-5-9-8" />
  </g>
</svg>
